<mxfile host="www.draw.io" modified="2019-10-21T07:35:01.762Z" agent="Mozilla/5.0 (Macintosh; Intel Mac OS X 10_14_6) AppleWebKit/605.1.15 (KHTML, like Gecko) Version/13.0.1 Safari/605.1.15" etag="Or4mTO6-ZeM67vzJ4fOj" version="12.1.3" type="github" pages="1">
  <diagram id="kst-iPPDZGNxzKF1YziQ" name="Page-1">
    <mxGraphModel dx="1247" dy="985" grid="1" gridSize="10" guides="1" tooltips="1" connect="1" arrows="1" fold="1" page="1" pageScale="1" pageWidth="827" pageHeight="1169" math="0" shadow="0">
      <root>
        <mxCell id="0"/>
        <mxCell id="1" parent="0"/>
        <mxCell id="Ua_jrc7jMlT3O7kdiqDU-2" value="" style="endArrow=none;html=1;" parent="1" edge="1">
          <mxGeometry width="50" height="50" relative="1" as="geometry">
            <mxPoint x="360" y="480" as="sourcePoint"/>
            <mxPoint x="360" y="40" as="targetPoint"/>
          </mxGeometry>
        </mxCell>
        <mxCell id="Ua_jrc7jMlT3O7kdiqDU-12" value="clone, pull" style="text;html=1;strokeColor=none;fillColor=none;align=center;verticalAlign=middle;whiteSpace=wrap;rounded=0;" parent="1" vertex="1">
          <mxGeometry x="420" y="195" width="60" height="50" as="geometry"/>
        </mxCell>
        <mxCell id="Ua_jrc7jMlT3O7kdiqDU-18" value="" style="edgeStyle=orthogonalEdgeStyle;rounded=0;orthogonalLoop=1;jettySize=auto;html=1;strokeWidth=4;startArrow=classic;startFill=1;" parent="1" source="Ua_jrc7jMlT3O7kdiqDU-15" edge="1">
          <mxGeometry relative="1" as="geometry">
            <mxPoint x="202.5" y="320" as="targetPoint"/>
          </mxGeometry>
        </mxCell>
        <mxCell id="Ua_jrc7jMlT3O7kdiqDU-15" value="" style="fontColor=#0066CC;verticalAlign=top;verticalLabelPosition=bottom;labelPosition=center;align=center;html=1;outlineConnect=0;fillColor=#CCCCCC;strokeColor=#6881B3;gradientColor=none;gradientDirection=north;strokeWidth=2;shape=mxgraph.networks.web_server;" parent="1" vertex="1">
          <mxGeometry x="150" y="140" width="105" height="100" as="geometry"/>
        </mxCell>
        <mxCell id="Ua_jrc7jMlT3O7kdiqDU-16" value="" style="fontColor=#0066CC;verticalAlign=top;verticalLabelPosition=bottom;labelPosition=center;align=center;html=1;outlineConnect=0;fillColor=#CCCCCC;strokeColor=#6881B3;gradientColor=none;gradientDirection=north;strokeWidth=2;shape=mxgraph.networks.virtual_server;" parent="1" vertex="1">
          <mxGeometry x="145" y="320" width="110" height="120" as="geometry"/>
        </mxCell>
        <mxCell id="Ua_jrc7jMlT3O7kdiqDU-19" value="" style="fontColor=#0066CC;verticalAlign=top;verticalLabelPosition=bottom;labelPosition=center;align=center;html=1;outlineConnect=0;fillColor=#CCCCCC;strokeColor=#6881B3;gradientColor=none;gradientDirection=north;strokeWidth=2;shape=mxgraph.networks.radio_tower;" parent="1" vertex="1">
          <mxGeometry x="30" y="180" width="50" height="80" as="geometry"/>
        </mxCell>
        <mxCell id="Ua_jrc7jMlT3O7kdiqDU-20" value="" style="fontColor=#0066CC;verticalAlign=top;verticalLabelPosition=bottom;labelPosition=center;align=center;html=1;outlineConnect=0;fillColor=#CCCCCC;strokeColor=#6881B3;gradientColor=none;gradientDirection=north;strokeWidth=2;shape=mxgraph.networks.terminal;" parent="1" vertex="1">
          <mxGeometry x="30" y="297.5" width="80" height="65" as="geometry"/>
        </mxCell>
        <mxCell id="Ua_jrc7jMlT3O7kdiqDU-21" value="" style="fontColor=#0066CC;verticalAlign=top;verticalLabelPosition=bottom;labelPosition=center;align=center;html=1;outlineConnect=0;fillColor=#CCCCCC;strokeColor=#6881B3;gradientColor=none;gradientDirection=north;strokeWidth=2;shape=mxgraph.networks.user_male;" parent="1" vertex="1">
          <mxGeometry x="300" y="340" width="40" height="100" as="geometry"/>
        </mxCell>
        <mxCell id="Ua_jrc7jMlT3O7kdiqDU-22" value="" style="endArrow=none;html=1;strokeWidth=1;" parent="1" edge="1">
          <mxGeometry width="50" height="50" relative="1" as="geometry">
            <mxPoint x="10" y="280" as="sourcePoint"/>
            <mxPoint x="715" y="280" as="targetPoint"/>
          </mxGeometry>
        </mxCell>
        <mxCell id="Ua_jrc7jMlT3O7kdiqDU-24" value="" style="fontColor=#0066CC;verticalAlign=top;verticalLabelPosition=bottom;labelPosition=center;align=center;html=1;outlineConnect=0;fillColor=#CCCCCC;strokeColor=#6881B3;gradientColor=none;gradientDirection=north;strokeWidth=2;shape=mxgraph.networks.virtual_server;" parent="1" vertex="1">
          <mxGeometry x="510" y="320" width="110" height="120" as="geometry"/>
        </mxCell>
        <mxCell id="Ua_jrc7jMlT3O7kdiqDU-26" value="" style="fontColor=#0066CC;verticalAlign=top;verticalLabelPosition=bottom;labelPosition=center;align=center;html=1;outlineConnect=0;fillColor=#CCCCCC;strokeColor=#6881B3;gradientColor=none;gradientDirection=north;strokeWidth=2;shape=mxgraph.networks.users;" parent="1" vertex="1">
          <mxGeometry x="390" y="340" width="90" height="100" as="geometry"/>
        </mxCell>
        <mxCell id="Ua_jrc7jMlT3O7kdiqDU-28" value="pull, push" style="text;html=1;strokeColor=none;fillColor=none;align=center;verticalAlign=middle;whiteSpace=wrap;rounded=0;" parent="1" vertex="1">
          <mxGeometry x="203" y="250" width="68" height="40" as="geometry"/>
        </mxCell>
        <mxCell id="Ua_jrc7jMlT3O7kdiqDU-29" value="" style="endArrow=classic;html=1;strokeWidth=3;" parent="1" edge="1">
          <mxGeometry width="50" height="50" relative="1" as="geometry">
            <mxPoint x="260" y="190" as="sourcePoint"/>
            <mxPoint x="560" y="310" as="targetPoint"/>
            <Array as="points">
              <mxPoint x="500" y="190"/>
              <mxPoint x="560" y="190"/>
            </Array>
          </mxGeometry>
        </mxCell>
      </root>
    </mxGraphModel>
  </diagram>
</mxfile>
